<svg xmlns="http://www.w3.org/2000/svg" width="225" height="42" viewBox="0 0 225 42" fill="none"><g id="boostlingo-logo-full-color-rgb 1" clip-path="url(#clip0_2264_3001)"><g id="Components"><g id="_7854f14f-d026-45a0-bca1-580e3d5b562a_1"><path id="Vector" d="M134.752 6.32923C136.51 6.32923 137.935 4.91238 137.935 3.16461C137.935 1.41685 136.51 0 134.752 0C132.994 0 131.569 1.41685 131.569 3.16461C131.569 4.91238 132.994 6.32923 134.752 6.32923Z" fill="#82C5BF"></path><path id="Vector_2" d="M210.834 5.91772C203.022 5.91772 196.668 12.2354 196.668 20.0031C196.668 27.7708 203.022 34.0885 210.834 34.0885C218.646 34.0885 225 27.7708 225 20.0031C225 12.2354 218.646 5.91772 210.834 5.91772ZM210.834 28.7029C206.008 28.7029 202.084 24.8018 202.084 20.0031C202.084 15.2044 206.008 11.3033 210.834 11.3033C215.661 11.3033 219.584 15.2044 219.584 20.0031C219.584 24.8019 215.66 28.7029 210.834 28.7029Z" fill="#82C5BF"></path><path id="Vector_3" d="M194.926 19.796C194.816 12.1204 188.502 5.91772 180.76 5.91772C172.947 5.91772 166.594 12.2354 166.594 20.0031C166.594 27.7708 172.947 34.0885 180.76 34.0885C184.024 34.0885 187.039 32.9838 189.434 31.1311C188.936 34.2324 186.222 36.6145 182.964 36.6145H177.698V42.0001H182.964C189.561 42.0001 194.932 36.6605 194.932 30.1011C194.932 30.1011 194.932 19.865 194.926 19.796ZM180.76 28.7029C175.933 28.7029 172.01 24.8018 172.01 20.0031C172.01 15.2044 175.933 11.3033 180.76 11.3033C185.586 11.3033 189.515 15.2044 189.515 20.0031C189.515 24.8019 185.586 28.7029 180.76 28.7029Z" fill="#82C5BF"></path><path id="Vector_4" d="M194.926 19.7959L194.932 20.003C194.932 19.9339 194.932 19.8649 194.926 19.7959Z" fill="#82C5BF"></path><path id="Vector_5" d="M164.857 33.2623H159.441V18.0978C159.441 14.3502 156.374 11.3016 152.606 11.3016C148.837 11.3016 145.77 14.3502 145.77 18.0978V33.2623H140.354V18.0978C140.354 11.3805 145.85 5.91577 152.606 5.91577C159.362 5.91577 164.857 11.3805 164.857 18.0978V33.2623Z" fill="#82C5BF"></path><path id="Vector_6" d="M128.861 0.116455H123.445V33.2623H128.861V0.116455Z" fill="#82C5BF"></path><path id="Vector_7" d="M137.46 8.83887H132.044V33.2624H137.46V8.83887Z" fill="#82C5BF"></path><path id="Vector_8" d="M43.6616 5.91772C35.8493 5.91772 29.4897 12.2354 29.4897 20.0031C29.4897 27.7708 35.8493 34.0885 43.6616 34.0885C51.4738 34.0885 57.8278 27.7708 57.8278 20.0031C57.8278 12.2354 51.4738 5.91772 43.6616 5.91772ZM43.6616 28.7029C38.8355 28.7029 34.9061 24.8018 34.9061 20.0031C34.9061 15.2044 38.8354 11.3033 43.6616 11.3033C48.4877 11.3033 52.4113 15.2044 52.4113 20.0031C52.4113 24.8019 48.488 28.7029 43.6616 28.7029Z" fill="#1462F0"></path><path id="Vector_9" d="M73.1514 5.91772C65.3392 5.91772 58.9852 12.2354 58.9852 20.0031C58.9852 27.7708 65.3392 34.0885 73.1514 34.0885C80.9637 34.0885 87.3236 27.7708 87.3236 20.0031C87.3236 12.2354 80.9637 5.91772 73.1514 5.91772ZM73.1514 28.7029C68.3309 28.7029 64.402 24.8018 64.402 20.0031C64.402 15.2044 68.331 11.3033 73.1514 11.3033C77.9778 11.3033 81.9072 15.2044 81.9072 20.0031C81.9072 24.8019 77.9779 28.7029 73.1514 28.7029Z" fill="#1462F0"></path><path id="Vector_10" d="M5.42199 8.93265L5.41638 8.9384V8.92114L5.42199 8.93265Z" fill="#1462F0"></path><path id="Vector_11" d="M28.3324 20.003C28.3324 27.7706 21.9781 34.0884 14.1659 34.0884C6.35361 34.0884 0 27.7706 0 20.003V0.117676H5.41643V20.003C5.41643 24.8017 9.3398 28.7028 14.1659 28.7028C18.992 28.7028 22.9157 24.8017 22.9157 20.003C22.9157 15.2043 18.9923 11.3031 14.1659 11.3031C12.3663 11.3031 10.6881 11.8498 9.29345 12.7819L5.42801 8.93256C7.83545 7.03955 10.8676 5.91755 14.1659 5.91755C21.9782 5.91755 28.3324 12.2353 28.3324 20.003Z" fill="#1462F0"></path><path id="Vector_12" d="M98.52 34.1747C92.9835 34.1747 88.4794 30.383 88.4794 25.7226H93.8956C93.8956 27.356 96.0566 28.7889 98.52 28.7889C100.983 28.7889 103.144 27.356 103.144 25.7226C103.144 24.0091 102.54 23.4637 98.0141 22.6088C94.4476 21.9354 88.4794 20.8079 88.4794 14.2045C88.4794 9.54417 92.9834 5.75244 98.5199 5.75244H104.394V11.1383H98.5199C96.0566 11.1383 93.8955 12.5711 93.8955 14.2045C93.8955 15.918 94.4996 16.4631 99.0252 17.318C102.591 17.9917 108.56 19.1192 108.56 25.7226C108.56 30.383 104.056 34.1747 98.52 34.1747Z" fill="#1462F0"></path><path id="Vector_13" d="M119.973 11.1364V5.75077H115.738V0.114014H110.321V5.75071H107.386V11.1363H110.321V25.4511C110.321 27.7993 111.261 33.2598 119.973 33.2598V28.1047C115.743 27.8844 115.737 26.3575 115.737 25.4511V11.1363L119.973 11.1364Z" fill="#1462F0"></path></g></g></g><defs><clipPath id="clip0_2264_3001"><rect width="225" height="42" fill="white"></rect></clipPath></defs></svg>